name rise49.8558peak67.6521fall70.3087.mot
datacolumns 19
datarows 30
range 14.10995300000000 14.15827700000000
endheader
time	ground_force1_vx	ground_force1_vy	ground_force1_vz	ground_force1_px	ground_force1_py	ground_force1_pz	ground_force2_vx	ground_force2_vy	ground_force2_vz	ground_force2_px	ground_force2_py	ground_force2_pz	ground_torque1_x	ground_torque1_y	ground_torque1_z	ground_torque2_x	ground_torque2_y	ground_torque2_z	
14.10995300000000	58.22025900000000	710.14701000000002	50.95805300000000	0.40164100000000	0.00000000000000	0.11744500000000	0.47695800000000	3.62653200000000	0.40832900000000	0.00000000000000	0.00000000000000	0.00000000000000	0.00000000000000	25.96391300000000	0.00000000000000	0.00000000000000	0.05363700000000	0.00000000000000	
14.11161300000000	57.71426500000000	713.83841299999995	51.20398000000000	0.40013900000000	0.00000000000000	0.11751200000000	0.00000000000000	0.00000000000000	0.00000000000000	0.00000000000000	0.00000000000000	0.00000000000000	0.00000000000000	26.10139800000000	0.00000000000000	0.00000000000000	0.00000000000000	0.00000000000000	
14.11328300000000	57.21028200000000	717.48924599999998	51.45910300000000	0.39867800000000	0.00000000000000	0.11758000000000	0.00000000000000	0.00000000000000	0.00000000000000	0.00000000000000	0.00000000000000	0.00000000000000	0.00000000000000	26.24769800000000	0.00000000000000	0.00000000000000	0.00000000000000	0.00000000000000	
14.11494600000000	56.70847200000000	721.09517800000003	51.72283300000000	0.39725800000000	0.00000000000000	0.11764600000000	0.00000000000000	0.00000000000000	0.00000000000000	0.00000000000000	0.00000000000000	0.00000000000000	0.00000000000000	26.40245200000000	0.00000000000000	0.00000000000000	0.00000000000000	0.00000000000000	
14.11661300000000	56.20893900000000	724.65181199999995	51.99449100000000	0.39588200000000	0.00000000000000	0.11771200000000	0.00000000000000	0.00000000000000	0.00000000000000	0.00000000000000	0.00000000000000	0.00000000000000	0.00000000000000	26.56523700000000	0.00000000000000	0.00000000000000	0.00000000000000	0.00000000000000	
14.11828300000000	55.71173100000000	728.15471600000001	52.27331500000000	0.39454900000000	0.00000000000000	0.11777800000000	0.00000000000000	0.00000000000000	0.00000000000000	0.00000000000000	0.00000000000000	0.00000000000000	0.00000000000000	26.73556500000000	0.00000000000000	0.00000000000000	0.00000000000000	0.00000000000000	
14.11995000000000	55.21684800000000	731.59943599999997	52.55846400000000	0.39326100000000	0.00000000000000	0.11784200000000	0.00000000000000	0.00000000000000	0.00000000000000	0.00000000000000	0.00000000000000	0.00000000000000	0.00000000000000	26.91289200000000	0.00000000000000	0.00000000000000	0.00000000000000	0.00000000000000	
14.12162200000000	54.72423700000000	734.98152100000004	52.84902800000000	0.39201600000000	0.00000000000000	0.11790600000000	0.00000000000000	0.00000000000000	0.00000000000000	0.00000000000000	0.00000000000000	0.00000000000000	0.00000000000000	27.09662300000000	0.00000000000000	0.00000000000000	0.00000000000000	0.00000000000000	
14.12328300000000	54.23380400000000	738.29654400000004	53.14403300000000	0.39081700000000	0.00000000000000	0.11796800000000	0.00000000000000	0.00000000000000	0.00000000000000	0.00000000000000	0.00000000000000	0.00000000000000	0.00000000000000	27.28611200000000	0.00000000000000	0.00000000000000	0.00000000000000	0.00000000000000	
14.12494200000000	53.74541100000000	741.54012200000000	53.44245000000000	0.38966200000000	0.00000000000000	0.11802900000000	0.00000000000000	0.00000000000000	0.00000000000000	0.00000000000000	0.00000000000000	0.00000000000000	0.00000000000000	27.48067400000000	0.00000000000000	0.00000000000000	0.00000000000000	0.00000000000000	
14.12661300000000	53.25888400000000	744.70793800000001	53.74320200000000	0.38855200000000	0.00000000000000	0.11808900000000	0.00000000000000	0.00000000000000	0.00000000000000	0.00000000000000	0.00000000000000	0.00000000000000	0.00000000000000	27.67958200000000	0.00000000000000	0.00000000000000	0.00000000000000	0.00000000000000	
14.12828400000000	52.77401500000000	747.79575899999998	54.04517000000000	0.38748600000000	0.00000000000000	0.11814700000000	0.00000000000000	0.00000000000000	0.00000000000000	0.00000000000000	0.00000000000000	0.00000000000000	0.00000000000000	27.88207900000000	0.00000000000000	0.00000000000000	0.00000000000000	0.00000000000000	
14.12995000000000	52.29056500000000	750.79945199999997	54.34720400000000	0.38646300000000	0.00000000000000	0.11820300000000	0.00000000000000	0.00000000000000	0.00000000000000	0.00000000000000	0.00000000000000	0.00000000000000	0.00000000000000	28.08738000000000	0.00000000000000	0.00000000000000	0.00000000000000	0.00000000000000	
14.13161600000000	51.80827200000000	753.71500900000001	54.64813200000000	0.38548300000000	0.00000000000000	0.11825900000000	0.00000000000000	0.00000000000000	0.00000000000000	0.00000000000000	0.00000000000000	0.00000000000000	0.00000000000000	28.29467600000000	0.00000000000000	0.00000000000000	0.00000000000000	0.00000000000000	
14.13328100000000	51.32685100000000	756.53855799999997	54.94676300000000	0.38454400000000	0.00000000000000	0.11831200000000	0.00000000000000	0.00000000000000	0.00000000000000	0.00000000000000	0.00000000000000	0.00000000000000	0.00000000000000	28.50314000000000	0.00000000000000	0.00000000000000	0.00000000000000	0.00000000000000	
14.13494900000000	50.84599700000000	759.26638500000001	55.24189900000000	0.38364600000000	0.00000000000000	0.11836300000000	0.00000000000000	0.00000000000000	0.00000000000000	0.00000000000000	0.00000000000000	0.00000000000000	0.00000000000000	28.71193400000000	0.00000000000000	0.00000000000000	0.00000000000000	0.00000000000000	
14.13661800000000	50.36539400000000	761.89494200000001	55.53234500000000	0.38278700000000	0.00000000000000	0.11841300000000	0.00000000000000	0.00000000000000	0.00000000000000	0.00000000000000	0.00000000000000	0.00000000000000	0.00000000000000	28.92021200000000	0.00000000000000	0.00000000000000	0.00000000000000	0.00000000000000	
14.13827800000000	49.88471600000000	764.42086900000004	55.81691100000000	0.38196600000000	0.00000000000000	0.11846100000000	0.00000000000000	0.00000000000000	0.00000000000000	0.00000000000000	0.00000000000000	0.00000000000000	0.00000000000000	29.12712400000000	0.00000000000000	0.00000000000000	0.00000000000000	0.00000000000000	
14.13995600000000	49.40362800000000	766.84100300000000	56.09442300000000	0.38118200000000	0.00000000000000	0.11850700000000	0.00000000000000	0.00000000000000	0.00000000000000	0.00000000000000	0.00000000000000	0.00000000000000	0.00000000000000	29.33182500000000	0.00000000000000	0.00000000000000	0.00000000000000	0.00000000000000	
14.14161300000000	48.92179700000000	769.15239299999996	56.36373200000000	0.38043200000000	0.00000000000000	0.11855200000000	0.00000000000000	0.00000000000000	0.00000000000000	0.00000000000000	0.00000000000000	0.00000000000000	0.00000000000000	29.53347500000000	0.00000000000000	0.00000000000000	0.00000000000000	0.00000000000000	
14.14328100000000	48.43888600000000	771.35230700000000	56.62371800000000	0.37971500000000	0.00000000000000	0.11859400000000	0.00000000000000	0.00000000000000	0.00000000000000	0.00000000000000	0.00000000000000	0.00000000000000	0.00000000000000	29.73124600000000	0.00000000000000	0.00000000000000	0.00000000000000	0.00000000000000	
14.14495100000000	47.95456700000000	773.43824500000005	56.87329900000000	0.37903000000000	0.00000000000000	0.11863400000000	0.00000000000000	0.00000000000000	0.00000000000000	0.00000000000000	0.00000000000000	0.00000000000000	0.00000000000000	29.92432600000000	0.00000000000000	0.00000000000000	0.00000000000000	0.00000000000000	
14.14661400000000	47.46851600000000	775.40795000000003	57.11143700000000	0.37837400000000	0.00000000000000	0.11867300000000	0.00000000000000	0.00000000000000	0.00000000000000	0.00000000000000	0.00000000000000	0.00000000000000	0.00000000000000	30.11192600000000	0.00000000000000	0.00000000000000	0.00000000000000	0.00000000000000	
14.14827600000000	46.98042300000000	777.25941000000000	57.33714200000000	0.37774500000000	0.00000000000000	0.11870900000000	0.00000000000000	0.00000000000000	0.00000000000000	0.00000000000000	0.00000000000000	0.00000000000000	0.00000000000000	30.29327900000000	0.00000000000000	0.00000000000000	0.00000000000000	0.00000000000000	
14.14995700000000	46.48999000000000	778.99086799999998	57.54948100000000	0.37714100000000	0.00000000000000	0.11874400000000	0.00000000000000	0.00000000000000	0.00000000000000	0.00000000000000	0.00000000000000	0.00000000000000	0.00000000000000	30.46764800000000	0.00000000000000	0.00000000000000	0.00000000000000	0.00000000000000	
14.15160900000000	45.99693500000000	780.60082799999998	57.74758200000000	0.37656000000000	0.00000000000000	0.11877700000000	0.00000000000000	0.00000000000000	0.00000000000000	0.00000000000000	0.00000000000000	0.00000000000000	0.00000000000000	30.63432700000000	0.00000000000000	0.00000000000000	0.00000000000000	0.00000000000000	
14.15327900000000	45.50099600000000	782.08805700000005	57.93063400000000	0.37600000000000	0.00000000000000	0.11880900000000	0.00000000000000	0.00000000000000	0.00000000000000	0.00000000000000	0.00000000000000	0.00000000000000	0.00000000000000	30.79264800000000	0.00000000000000	0.00000000000000	0.00000000000000	0.00000000000000	
14.15494700000000	45.00193200000000	783.45158700000002	58.09790100000000	0.37545800000000	0.00000000000000	0.11883800000000	0.00000000000000	0.00000000000000	0.00000000000000	0.00000000000000	0.00000000000000	0.00000000000000	0.00000000000000	30.94198000000000	0.00000000000000	0.00000000000000	0.00000000000000	0.00000000000000	
14.15661500000000	44.49952500000000	784.69072200000005	58.24871500000000	0.37493200000000	0.00000000000000	0.11886600000000	0.00000000000000	0.00000000000000	0.00000000000000	0.00000000000000	0.00000000000000	0.00000000000000	0.00000000000000	31.08173500000000	0.00000000000000	0.00000000000000	0.00000000000000	0.00000000000000	
14.15827700000000	43.99358200000000	785.80503399999998	58.38248500000000	0.37442000000000	0.00000000000000	0.11889300000000	0.00000000000000	0.00000000000000	0.00000000000000	0.00000000000000	0.00000000000000	0.00000000000000	0.00000000000000	31.21136900000000	0.00000000000000	0.00000000000000	0.00000000000000	0.00000000000000	
